<?xml version="1.0" encoding="UTF-8" standalone="no"?>
<!DOCTYPE svg PUBLIC "-//W3C//DTD SVG 1.1//EN" "http://www.w3.org/Graphics/SVG/1.1/DTD/svg11.dtd">
<svg width="100%" height="100%" viewBox="0 0 230 190" version="1.1" xmlns="http://www.w3.org/2000/svg" xmlns:xlink="http://www.w3.org/1999/xlink" xml:space="preserve" xmlns:serif="http://www.serif.com/" style="fill-rule:evenodd;clip-rule:evenodd;stroke-linecap:round;stroke-linejoin:round;stroke-miterlimit:1.5;">
    <g transform="matrix(0.802087,0.00215625,-0.00238104,0.885703,-529.997,-85.0108)">
        <g id="BackCover">
            <path d="M940.568,171.595C940.851,170.564 941.26,156.211 930.547,155.813L904.366,155.877C904.366,155.877 792.143,156.938 755.186,157.287C748.33,157.352 742.332,161.479 740.425,167.443C725.833,212.865 706.977,248.132 683.222,276.487C680.734,279.341 680.268,283.233 682.025,286.503C683.781,289.774 687.448,291.846 691.464,291.836C740.089,291.762 853.352,291.487 880.258,291.421C883.907,291.412 887.3,289.719 889.257,286.93C921.566,240.228 937.383,183.22 940.568,171.595Z" style="fill:rgb(75,55,180);stroke:rgb(38,35,59);stroke-width:1.18px;"/>
        </g>
    </g>
    <g transform="matrix(1,0,0,1,-295.904,-158)">
        <path d="M520,170.7C520,166.45 516.55,163 512.3,163L367.7,163C363.45,163 360,166.45 360,170.7L360,278.3C360,282.55 363.45,286 367.7,286L512.3,286C516.55,286 520,282.55 520,278.3L520,170.7Z" style="fill:rgb(64,230,126);stroke:rgb(38,35,59);stroke-width:1px;"/>
    </g>
    <g id="FrontCover" transform="matrix(0.722222,0,0,0.878047,-254.778,-164.268)">
        <g transform="matrix(1,0,0,1,101.094,68.3335)">
            <path d="M512,192.908C512,180.256 499.531,170 484.15,170L260,170L260,300.142C260,310.035 269.751,318.056 281.779,318.056L490.221,318.056C502.249,318.056 512,310.035 512,300.142L512,192.908Z" style="fill:rgb(75,55,180);stroke:rgb(30,27,51);stroke-width:1.24px;"/>
        </g>
        <g transform="matrix(-0.533725,-0.425665,1.02266,-0.867531,342.159,970.344)">
            <g transform="matrix(1.32115,0,0,1.13889,280.481,95.9722)">
                <path d="M290,310L177.059,310C173.161,310 170,311.855 170,314.144L170,315.856C170,318.145 173.161,320 177.059,320L290,320L290,310Z" style="fill:rgb(19,0,86);stroke:rgb(19,0,86);stroke-width:0.91px;"/>
            </g>
            <g transform="matrix(1.84615,0,0,1.13889,135.847,95.9722)">
                <path d="M290,310C290,310 290.459,309.869 291.141,309.674C294.886,308.604 299,308.824 302.544,310.283C307.505,312.326 314,315 314,315C314,315 307.505,317.674 302.544,319.717C299,321.176 294.886,321.396 291.141,320.326C290.459,320.131 290,320 290,320" style="fill:none;stroke:rgb(19,0,86);stroke-width:0.81px;"/>
            </g>
            <g transform="matrix(1.38462,0,0,1.13889,269.693,95.9722)">
                <rect x="284.5" y="310" width="5.5" height="10" style="fill:none;stroke:rgb(19,0,86);stroke-width:0.9px;"/>
            </g>
        </g>
    </g>
    <g transform="matrix(0.494387,-0.494387,0.662558,0.662558,-369.526,101.365)">
        <g>
            <g transform="matrix(1.28431,0,0,1.35135,193.554,-52.973)">
                <rect x="163" y="302.5" width="83.5" height="9.5" style="fill:rgb(19,0,86);stroke:rgb(19,0,86);stroke-width:0.82px;"/>
            </g>
            <g transform="matrix(1.86028,0,6.00121e-16,1.35135,99.6693,-52.973)">
                <path d="M163,302.5L153.015,302.5C152.454,302.5 152,302.967 152,303.543L152,310.957C152,311.533 152.454,312 153.015,312L163,312L163,302.5Z" style="fill:none;stroke:rgb(19,0,86);stroke-width:0.7px;"/>
            </g>
            <g transform="matrix(3.09801,1.23755e-16,6.00121e-16,1.35135,-253.524,-52.973)">
                <path d="M246.5,302.5C246.5,302.5 252.115,305.638 254.218,306.813C254.328,306.875 254.403,307.051 254.403,307.25C254.403,307.449 254.328,307.625 254.218,307.687C252.115,308.862 246.5,312 246.5,312L246.5,302.5Z" style="fill:none;stroke:rgb(19,0,86);stroke-width:0.51px;"/>
            </g>
        </g>
    </g>
    <g transform="matrix(1,0,0,1.40435,-323.988,-206.039)">
        <g id="Label">
            <path d="M380,175.75C380,172.576 376.382,170 371.925,170L338.075,170C333.618,170 330,172.576 330,175.75L330,187.25C330.002,189.37 329.759,193.053 329.995,193.001C329.998,193.001 330,193 330.003,193L371.925,193C376.382,193 380,190.424 380,187.25L380,175.75Z" style="fill:rgb(75,55,180);stroke:rgb(38,35,59);stroke-width:0.82px;"/>
        </g>
    </g>
</svg>
