<?xml version="1.0" encoding="UTF-8" standalone="no"?>
<!DOCTYPE svg PUBLIC "-//W3C//DTD SVG 1.1//EN" "http://www.w3.org/Graphics/SVG/1.1/DTD/svg11.dtd">
<svg width="100%" height="100%" viewBox="0 0 220 180" version="1.1" xmlns="http://www.w3.org/2000/svg" xmlns:xlink="http://www.w3.org/1999/xlink" xml:space="preserve" xmlns:serif="http://www.serif.com/" style="fill-rule:evenodd;clip-rule:evenodd;stroke-linecap:round;stroke-linejoin:round;stroke-miterlimit:1.5;">
    <g transform="matrix(0.802087,0.00215625,-0.00238104,0.885703,-535.093,-86.0108)">
        <g id="BackCover">
            <path d="M940.568,171.595C940.851,170.564 941.26,156.211 930.547,155.813L904.366,155.877C904.366,155.877 792.143,156.938 755.186,157.287C748.33,157.352 742.332,161.479 740.425,167.443C725.833,212.865 706.977,248.132 683.222,276.487C680.734,279.341 680.268,283.233 682.025,286.503C683.781,289.774 687.448,291.846 691.464,291.836C740.089,291.762 853.352,291.487 880.258,291.421C883.907,291.412 887.3,289.719 889.257,286.93C921.566,240.228 937.383,183.22 940.568,171.595Z" style="fill:rgb(75,55,180);stroke:rgb(38,35,59);stroke-width:1.18px;"/>
        </g>
    </g>
    <g transform="matrix(1,0,0,1,-301,-159)">
        <path d="M520,170.7C520,166.45 516.55,163 512.3,163L367.7,163C363.45,163 360,166.45 360,170.7L360,278.3C360,282.55 363.45,286 367.7,286L512.3,286C516.55,286 520,282.55 520,278.3L520,170.7Z" style="fill:rgb(64,214,230);stroke:rgb(38,35,59);stroke-width:1px;"/>
    </g>
    <g transform="matrix(0.722222,0,0,0.878047,-186.862,-105.268)">
        <g id="FrontCover">
            <path d="M512,192.908C512,180.256 499.531,170 484.15,170L260,170L260,300.142C260,310.035 269.751,318.056 281.779,318.056L490.221,318.056C502.249,318.056 512,310.035 512,300.142L512,192.908Z" style="fill:rgb(75,55,180);stroke:rgb(30,27,51);stroke-width:1.24px;"/>
        </g>
    </g>
    <g transform="matrix(1,0,0,1,34.9736,137.129)">
        <text x="0px" y="0px" style="font-family:'Comfortaa-Regular', 'Comfortaa';font-size:65.614px;fill:rgb(19,0,86);">&lt;/&gt;</text>
    </g>
    <g transform="matrix(1,0,0,1.40435,-329.084,-207.039)">
        <g id="Label">
            <path d="M380,175.75C380,172.576 376.382,170 371.925,170L338.075,170C333.618,170 330,172.576 330,175.75L330,187.25C330.002,189.37 329.759,193.053 329.995,193.001C329.998,193.001 330,193 330.003,193L371.925,193C376.382,193 380,190.424 380,187.25L380,175.75Z" style="fill:rgb(75,55,180);stroke:rgb(38,35,59);stroke-width:0.82px;"/>
        </g>
    </g>
</svg>
