<?xml version="1.0" encoding="UTF-8" standalone="no"?>
<!DOCTYPE svg PUBLIC "-//W3C//DTD SVG 1.1//EN" "http://www.w3.org/Graphics/SVG/1.1/DTD/svg11.dtd">
<svg width="100%" height="100%" viewBox="0 0 200 200" version="1.1" xmlns="http://www.w3.org/2000/svg" xmlns:xlink="http://www.w3.org/1999/xlink" xml:space="preserve" xmlns:serif="http://www.serif.com/" style="fill-rule:evenodd;clip-rule:evenodd;stroke-linejoin:round;stroke-miterlimit:2;">
    <g transform="matrix(0.95,0,0,0.962121,4.55518,7.57583)">
        <circle cx="100" cy="100" r="100" style="fill:rgb(66,17,227);"/>
    </g>
    <g>
        <g transform="matrix(1.32012,-0.76217,0.652277,1.12978,-9.47396,51.6279)">
            <path d="M35.968,20.678C36.299,20.304 36.827,20.313 37.147,20.699C37.411,21.016 37.748,21.423 38.127,21.879C41.231,25.617 43.793,29.923 45.71,34.625C47.706,39.519 50,45.145 50,45.145L23.133,45.145C23.133,45.145 25.573,39.227 27.703,34.061C29.763,29.067 32.56,24.537 35.967,20.679C35.967,20.678 35.968,20.678 35.968,20.678Z" style="fill:white;"/>
        </g>
        <g transform="matrix(1.32012,0.76217,-0.652277,1.12978,113.048,-4.11216)">
            <path d="M35.968,20.678C36.299,20.304 36.827,20.313 37.147,20.699C37.411,21.016 37.748,21.423 38.127,21.879C41.231,25.617 43.793,29.923 45.71,34.625C47.706,39.519 50,45.145 50,45.145L23.133,45.145C23.133,45.145 25.573,39.227 27.703,34.061C29.763,29.067 32.56,24.537 35.967,20.679C35.967,20.678 35.968,20.678 35.968,20.678Z" style="fill:white;"/>
        </g>
        <g transform="matrix(1,0,0,1.38101,8.11037,-65.857)">
            <path d="M146,121.86C146,106.329 128.587,93.72 107.138,93.72L75.752,93.72C54.303,93.72 36.89,106.329 36.89,121.86C36.89,137.391 54.303,150 75.752,150L107.138,150C128.587,150 146,137.391 146,121.86Z" style="fill:white;"/>
        </g>
        <g transform="matrix(1.2816,0,0,0.75,-14.0777,50)">
            <path d="M107.479,147.697C107.396,132.359 100.097,120 91.12,120C89.572,120 88,120 86.449,120C82.095,120 77.92,122.966 74.85,128.242C71.779,133.517 70.066,140.667 70.09,148.108C70.159,169.753 70.242,196 70.242,196C70.242,196 71.499,196.456 73.355,197.129C83.42,200.78 93.822,200.773 103.885,197.109C106.148,196.285 107.738,195.706 107.738,195.706C107.738,195.706 107.596,169.316 107.479,147.697Z" style="fill:white;"/>
        </g>
        <g transform="matrix(1,0,0,1,11,0)">
            <path d="M76,162L48.643,162C46.243,162 43.943,161.045 42.248,159.346C41.178,158.174 40.388,158.395 35.148,149.656C33.689,147.266 31.471,145.433 28.849,144.449C27.676,144.004 26.519,143.57 25.785,143.294C25.185,143.07 24.555,142.937 23.916,142.902C22.611,142.816 21.321,142.902 20.423,144.217C20.154,144.585 20.234,145.1 20.6,145.37C20.835,145.615 21.183,145.871 21.573,146.159C24.478,148.3 26.806,151.13 28.345,154.395C30.787,159.576 34.577,167.616 36.917,172.58C38.2,175.303 40.873,177.102 43.879,177.266C53.85,177.811 75.634,179 75.634,179L76,162Z" style="fill:white;"/>
        </g>
    </g>
</svg>
