<?xml version="1.0" encoding="UTF-8" standalone="no"?>
<!DOCTYPE svg PUBLIC "-//W3C//DTD SVG 1.1//EN" "http://www.w3.org/Graphics/SVG/1.1/DTD/svg11.dtd">
<svg width="100%" height="100%" viewBox="0 0 200 200" version="1.1" xmlns="http://www.w3.org/2000/svg" xmlns:xlink="http://www.w3.org/1999/xlink" xml:space="preserve" xmlns:serif="http://www.serif.com/" style="fill-rule:evenodd;clip-rule:evenodd;stroke-linecap:round;stroke-linejoin:round;stroke-miterlimit:1.5;">
    <path d="M190,55C190,30.164 169.836,10 145,10L55,10C30.164,10 10,30.164 10,55L10,145C10,169.836 30.164,190 55,190L145,190C169.836,190 190,169.836 190,145L190,55Z" style="fill:rgb(66,17,227);"/>
    <g transform="matrix(0.841633,0,0,0.897967,0.0898139,7.34558)">
        <path d="M190,69.774C190,51.335 174.028,36.365 154.355,36.365L83.065,36.365C63.392,36.365 47.42,51.335 47.42,69.774L47.42,136.591C47.42,155.03 63.392,170 83.065,170L154.355,170C174.028,170 190,155.03 190,136.591L190,69.774Z" style="fill:none;stroke:white;stroke-width:11.59px;"/>
    </g>
    <g transform="matrix(0.934301,0,0,0.934301,18.0081,4.47459)">
        <circle cx="87.757" cy="102.243" r="27.757" style="fill:none;stroke:white;stroke-width:10.79px;"/>
    </g>
    <g transform="matrix(1,0,0,1,5,10)">
        <ellipse cx="131.379" cy="53.626" rx="3.621" ry="3.626" style="fill:white;stroke:white;stroke-width:10.08px;"/>
    </g>
</svg>
