<?xml version="1.0" encoding="UTF-8" standalone="no"?>
<!DOCTYPE svg PUBLIC "-//W3C//DTD SVG 1.1//EN" "http://www.w3.org/Graphics/SVG/1.1/DTD/svg11.dtd">
<svg width="100%" height="100%" viewBox="0 0 225 180" version="1.1" xmlns="http://www.w3.org/2000/svg" xmlns:xlink="http://www.w3.org/1999/xlink" xml:space="preserve" xmlns:serif="http://www.serif.com/" style="fill-rule:evenodd;clip-rule:evenodd;stroke-linecap:round;stroke-linejoin:round;stroke-miterlimit:1.5;">
    <g transform="matrix(0.802087,0.00215625,-0.00238104,0.885703,-532.497,-85.0108)">
        <g id="BackCover">
            <path d="M940.568,171.595C940.851,170.564 941.26,156.211 930.547,155.813L904.366,155.877C904.366,155.877 792.143,156.938 755.186,157.287C748.33,157.352 742.332,161.479 740.425,167.443C725.833,212.865 706.977,248.132 683.222,276.487C680.734,279.341 680.268,283.233 682.025,286.503C683.781,289.774 687.448,291.846 691.464,291.836C740.089,291.762 853.352,291.487 880.258,291.421C883.907,291.412 887.3,289.719 889.257,286.93C921.566,240.228 937.383,183.22 940.568,171.595Z" style="fill:rgb(75,55,180);stroke:rgb(38,35,59);stroke-width:1.18px;"/>
        </g>
    </g>
    <g transform="matrix(1,0,0,1,-298.404,-158)">
        <path d="M520,170.7C520,166.45 516.55,163 512.3,163L367.7,163C363.45,163 360,166.45 360,170.7L360,278.3C360,282.55 363.45,286 367.7,286L512.3,286C516.55,286 520,282.55 520,278.3L520,170.7Z" style="fill:rgb(0,187,207);stroke:rgb(38,35,59);stroke-width:1px;"/>
    </g>
    <g transform="matrix(0.722222,0,0,0.878047,-184.266,-104.268)">
        <g id="FrontCover">
            <path d="M512,192.908C512,180.256 499.531,170 484.15,170L260,170L260,300.142C260,310.035 269.751,318.056 281.779,318.056L490.221,318.056C502.249,318.056 512,310.035 512,300.142L512,192.908Z" style="fill:rgb(75,55,180);stroke:rgb(30,27,51);stroke-width:1.24px;"/>
        </g>
    </g>
    <g transform="matrix(0.74,0,0,0.74,-193.5,-45.8)">
        <g transform="matrix(1,0,0,1,98.6652,87.8378)">
            <path d="M350,102.311C350,99.046 348.703,95.915 346.394,93.606C344.085,91.297 340.954,90 337.689,90L237.311,90C234.046,90 230.915,91.297 228.606,93.606C226.297,95.915 225,99.046 225,102.311L225,157.689C225,160.954 226.297,164.085 228.606,166.394C230.915,168.703 234.046,170 237.311,170L337.689,170C340.954,170 344.085,168.703 346.394,166.394C348.703,164.085 350,160.954 350,157.689L350,102.311Z" style="fill:rgb(104,79,233);stroke:rgb(38,35,59);stroke-width:1.35px;"/>
        </g>
        <g transform="matrix(0.728,0,0,1,176.865,87.8378)">
            <path d="M202.576,98.378C202.576,98.378 216.621,111.921 222.48,117.57C224.121,119.152 226.385,120.333 228.972,120.953C239.56,123.494 268.525,130.446 281.303,133.513C285.328,134.479 289.672,134.479 293.697,133.513C306.475,130.446 335.44,123.494 346.028,120.953C348.615,120.333 350.879,119.152 352.52,117.57C358.379,111.921 372.424,98.378 372.424,98.378" style="fill:rgb(104,79,233);stroke:rgb(38,35,59);stroke-width:1.55px;"/>
        </g>
        <g transform="matrix(1,0,0,1,98.1652,87.5878)">
            <path d="M300,131.375C300,129.236 298.264,127.5 296.125,127.5L279.875,127.5C277.736,127.5 276,129.236 276,131.375L276,139.125C276,141.264 277.736,143 279.875,143L296.125,143C298.264,143 300,141.264 300,139.125L300,131.375Z" style="fill:rgb(104,79,233);stroke:rgb(38,35,59);stroke-width:1.35px;"/>
        </g>
        <g transform="matrix(1,0,0,1,152.665,90.8378)">
            <path d="M248,81.95C248,79.769 246.231,78 244.05,78L222.95,78C220.769,78 219,79.769 219,81.95L219,87L248,87L248,81.95Z" style="fill:none;stroke:rgb(38,35,59);stroke-width:2.03px;"/>
        </g>
    </g>
    <g transform="matrix(1,0,0,1.40435,-326.488,-206.039)">
        <g id="Label">
            <path d="M380,175.75C380,172.576 376.382,170 371.925,170L338.075,170C333.618,170 330,172.576 330,175.75L330,187.25C330.002,189.37 329.759,193.053 329.995,193.001C329.998,193.001 330,193 330.003,193L371.925,193C376.382,193 380,190.424 380,187.25L380,175.75Z" style="fill:rgb(75,55,180);stroke:rgb(38,35,59);stroke-width:0.82px;"/>
        </g>
    </g>
</svg>
